<?xml version="1.0"?>
<svg width="247" height="34" xmlns="http://www.w3.org/2000/svg" xmlns:svg="http://www.w3.org/2000/svg">
 <g class="layer">
  <title>Layer 1</title>
  <path d="m18,33l16,0l0,-2.59l-7.28,0a15.92,15.92 0 0 1 -8.72,2.59zm0,-5.82a3.24,3.24 0 0 1 -3.23,-3.23a3.24,3.24 0 0 1 3.23,-3.23l0,-7.44a3.24,3.24 0 0 1 -3.23,-3.23a3.24,3.24 0 0 1 3.23,-3.23l0,-5.82c-8.84,0 -16,7.16 -16,16s7.16,16 16,16l0,-5.82zm-6.95,-6.95a3.24,3.24 0 0 1 -3.23,-3.23a3.24,3.24 0 0 1 3.23,-3.23a3.24,3.24 0 0 1 3.23,3.23a3.24,3.24 0 0 1 -3.23,3.23z" fill="#E30B13" id="svg_1"/>
  <path d="m34,17c0,-8.84 -7.16,-16 -16,-16l0,5.82a3.24,3.24 0 0 1 3.23,3.23a3.24,3.24 0 0 1 -3.23,3.23l0,7.44a3.24,3.24 0 0 1 3.23,3.23a3.24,3.24 0 0 1 -3.23,3.23l0,5.82c3.22,0 6.21,-0.95 8.72,-2.59c4.38,-2.85 7.28,-7.79 7.28,-13.41zm-9.05,-3.23a3.24,3.24 0 0 1 3.23,3.23a3.24,3.24 0 0 1 -3.23,3.23a3.24,3.24 0 0 1 -3.23,-3.23a3.24,3.24 0 0 1 3.23,-3.23z" fill="#CE080F" id="svg_2"/>
  <text fill="#ffffff" font-family="Helvetica" font-size="2" font-weight="bold" id="svg_5" stroke-width="0" text-anchor="middle" transform="matrix(18.99 0 0 14.2715 -4177.97 1385.37)" x="226.83" xml:space="preserve" y="-95.28">MovieFlix</text>
  <text fill="#bf0000" font-family="Helvetica" font-size="2" id="svg_3" stroke="#000000" stroke-width="0" text-anchor="middle" transform="matrix(25.2286 0 0 16.4641 4305.4 1870.2)" x="-161.68" xml:space="preserve" y="-111.97">!</text>
 </g>
</svg>